HIERARCHY
ROOT root
{
	OFFSET	0	13.1	24.9
	CHANNELS 6  Xposition Yposition Zposition Xrotation Yrotation Zrotation
	JOINT spine_1
	{
		OFFSET	0	9.99999	0
		CHANNELS 3  Xrotation Yrotation Zrotation
		JOINT spine_2
		{
			OFFSET	0	112	-10
			CHANNELS 3  Xrotation Yrotation Zrotation
			JOINT spine_3
			{
				OFFSET	0	206.5	19.3
				CHANNELS 3  Xrotation Yrotation Zrotation
				JOINT spine_4
				{
					OFFSET	0	110.4	14.6
					CHANNELS 3  Xrotation Yrotation Zrotation
					JOINT neck_1
					{
						OFFSET	0	71.8	-50.3
						CHANNELS 3  Xrotation Yrotation Zrotation
						JOINT neck_2
						{
							OFFSET	0	86.2	-25.8
							CHANNELS 3  Xrotation Yrotation Zrotation
							JOINT head_ee
							{
								OFFSET	0	179.8	-8.7
								CHANNELS 3  Xrotation Yrotation Zrotation
								End Site
								{
									OFFSET	1	0	0
								}
							}
						}
					}
					JOINT left_clavicle
					{
						OFFSET	-43.2	22.4	-70.8
						CHANNELS 3  Xrotation Yrotation Zrotation
						JOINT left_shoulder
						{
							OFFSET	-93.9	-5.79999	48.7
							CHANNELS 3  Xrotation Yrotation Zrotation
							JOINT left_elbow
							{
								OFFSET	-291.4	-30.8	15.2
								CHANNELS 3  Xrotation Yrotation Zrotation
								JOINT left_lowarm_twist
								{
									OFFSET	-110.7	-3.89999	13.6
									CHANNELS 3  Xrotation Yrotation Zrotation
									JOINT left_hand
									{
										OFFSET	-110.7	-3.89999	13.6
										CHANNELS 3  Xrotation Yrotation Zrotation
										JOINT left_ee
										{
											OFFSET	-80.8	-5.10001	12.1
											CHANNELS 3  Xrotation Yrotation Zrotation
											End Site
											{
												OFFSET	1	0	0
											}
										}
									}
								}
							}
						}
					}
					JOINT right_clavicle
					{
						OFFSET	43.2	22.4	-70.8
						CHANNELS 3  Xrotation Yrotation Zrotation
						JOINT right_shoulder
						{
							OFFSET	93.9	-5.79999	48.7
							CHANNELS 3  Xrotation Yrotation Zrotation
							JOINT right_elbow
							{
								OFFSET	291.4	-30.8	15.2
								CHANNELS 3  Xrotation Yrotation Zrotation
								JOINT right_lowarm_twist
								{
									OFFSET	110.7	-3.89999	13.6
									CHANNELS 3  Xrotation Yrotation Zrotation
									JOINT right_hand
									{
										OFFSET	110.7	-3.89999	13.6
										CHANNELS 3  Xrotation Yrotation Zrotation
										JOINT right_ee
										{
											OFFSET	80.8	-5.10001	12.1
											CHANNELS 3  Xrotation Yrotation Zrotation
											End Site
											{
												OFFSET	1	0	0
											}
										}
									}
								}
							}
						}
					}
				}
			}
		}
	}
	JOINT left_hip
	{
		OFFSET	-82.8	-127.5	0.300001
		CHANNELS 3  Xrotation Yrotation Zrotation
		JOINT left_knee
		{
			OFFSET	-28.2	-396.7	2.2
			CHANNELS 3  Xrotation Yrotation Zrotation
			JOINT left_ankle
			{
				OFFSET	-11.7	-411.3	35.4
				CHANNELS 3  Xrotation Yrotation Zrotation
				JOINT left_toes
				{
					OFFSET	0	-60	-88.6
					CHANNELS 3  Xrotation Yrotation Zrotation
					JOINT left_foot_ee
					{
						OFFSET	-22.5	-16.5	-42.2
						CHANNELS 3  Xrotation Yrotation Zrotation
						End Site
						{
							OFFSET	1	0	0
						}
					}
				}
			}
		}
	}
	JOINT right_hip
	{
		OFFSET	82.8	-127.5	0.300001
		CHANNELS 3  Xrotation Yrotation Zrotation
		JOINT right_knee
		{
			OFFSET	28.2	-396.7	2.2
			CHANNELS 3  Xrotation Yrotation Zrotation
			JOINT right_ankle
			{
				OFFSET	11.7	-411.3	35.4
				CHANNELS 3  Xrotation Yrotation Zrotation
				JOINT right_toes
				{
					OFFSET	0	-60	-88.6
					CHANNELS 3  Xrotation Yrotation Zrotation
					JOINT right_foot_ee
					{
						OFFSET	22.5	-16.5	-42.2
						CHANNELS 3  Xrotation Yrotation Zrotation
						End Site
						{
							OFFSET	1	0	0
						}
					}
				}
			}
		}
	}
}
MOTION
Frames: 13
Frame Time: 0.02
3574.42 741.953 -1474.73 171.491290093 86.2289627142 -167.80190516 1.07307 -0.341225 -1.83587 1.07491 -0.223733 -1.85385 1.08263 0.135744 -1.86236 1.07783 -0.160032 -1.86043 -15.2084 9.3149 4.67805 -15.3473 15.0751 7.55123 -0.0 0.0 -0.0 10.6199 0.131857 20.9339 -2.03273 -7.76254 68.9453 1.94068 -43.8666 0.781523 23.2713 0.224883 -2.94382 4.77704 18.4251 39.9269 -0.0 0.0 -0.0 10.8688 -19.4989 -18.9632 -27.4697 3.5837 -52.2906 0.643049 17.6693 -0.0999482 -55.2793 4.70219 -4.93013 -2.20253 4.80101 17.1286 0.0 0.0 0.0 1.86579 -5.41303 -1.78611 -7.64704 0.238495 1.14849 24.3321 27.0664 -3.46833 -19.4865 0.0 0.0 -0.0 0.0 -0.0 1.16134 2.13376 0.0936446 6.46405 0.319621 0.939591 10.2924 13.1449 1.56543 -22.713 0.0 0.0 0.0 0.0 0.0 
3561.01992291 740.582 -1482.65952301 172.262018762 86.00848979 -169.034765867 0.905221 -0.281765 -1.60918 0.906644 -0.178812 -1.62384 0.912136 0.140596 -1.62759 0.908459 -0.118181 -1.62937 -14.15 10.0828 4.42147 -14.308 16.5698 7.41706 -0.0 0.0 -0.0 10.4918 0.604082 20.6392 -3.10109 -8.23354 68.863 1.99821 -44.7028 0.821687 23.2437 0.225329 -2.94033 4.72663 17.8742 39.3964 -0.0 0.0 -0.0 11.3399 -18.0445 -20.0368 -27.2446 3.21151 -52.3712 0.589498 16.279 -0.0843134 -55.6908 4.75223 -4.94695 -2.20007 4.41514 16.9331 0.0 0.0 0.0 1.9054 -5.07619 -2.27214 -8.06722 0.247131 1.21239 25.6369 27.2424 -3.63669 -18.7588 0.0 0.0 -0.0 0.0 -0.0 1.39575 2.39548 0.39805 6.15831 0.302122 0.895984 10.7072 15.4944 1.65318 -22.0163 0.0 0.0 0.0 0.0 0.0 
3561.07783688 740.582 -1482.7565861 171.367058937 86.4201825498 -168.137854855 0.905221 -0.281765 -1.60918 0.906644 -0.178812 -1.62384 0.912136 0.140596 -1.62759 0.908459 -0.118181 -1.62937 -14.15 10.0828 4.42147 -14.308 16.5698 7.41706 -0.0 0.0 -0.0 10.4918 0.604082 20.6392 -3.10109 -8.23354 68.863 1.99821 -44.7028 0.821687 23.2437 0.225329 -2.94033 4.72663 17.8742 39.3964 -0.0 0.0 -0.0 11.3399 -18.0445 -20.0368 -27.2446 3.21151 -52.3712 0.589498 16.279 -0.0843134 -55.6908 4.75223 -4.94695 -2.20007 4.41514 16.9331 0.0 0.0 0.0 1.9054 -5.07619 -2.27214 -8.06722 0.247131 1.21239 25.6369 27.2424 -3.63669 -18.7588 0.0 0.0 -0.0 0.0 -0.0 1.39575 2.39548 0.39805 6.15831 0.302122 0.895984 10.7072 15.4944 1.65318 -22.0163 0.0 0.0 0.0 0.0 0.0 
3531.50436173 737.713 -1493.16698098 172.641542226 85.9492563993 -169.76378406 1.28167 -0.110207 -1.44516 1.28284 -0.0180338 -1.44924 1.28344 0.255124 -1.42673 1.2806 0.0266215 -1.44911 -12.2551 9.78351 3.08985 -12.3871 16.6048 5.78356 -0.0 0.0 -0.0 10.0189 2.53371 19.5497 -5.93717 -10.6559 70.2388 1.74342 -40.8115 0.648613 23.3673 0.223323 -2.95598 4.87799 18.7036 40.8222 -0.0 0.0 -0.0 10.4346 -17.297 -18.6294 -26.0993 4.67626 -54.343 0.638016 17.5395 -0.0984262 -56.0596 4.79717 -4.96171 -2.49198 3.67887 18.6536 0.0 0.0 0.0 -0.363104 -4.71422 -3.01606 -7.05169 0.225455 1.05806 27.3425 25.7522 -3.81119 -19.0528 0.0 0.0 -0.0 0.0 -0.0 0.492126 2.28901 -0.45958 3.93238 0.181795 0.575852 15.609 13.3658 2.32404 -21.4009 0.0 0.0 0.0 0.0 0.0 
3531.72036502 737.713 -1493.66186331 171.211843431 86.6051096969 -168.331085772 1.28167 -0.110207 -1.44516 1.28284 -0.0180338 -1.44924 1.28344 0.255124 -1.42673 1.2806 0.0266215 -1.44911 -12.2551 9.78351 3.08985 -12.3871 16.6048 5.78356 -0.0 0.0 -0.0 10.0189 2.53371 19.5497 -5.93717 -10.6559 70.2388 1.74342 -40.8115 0.648613 23.3673 0.223323 -2.95598 4.87799 18.7036 40.8222 -0.0 0.0 -0.0 10.4346 -17.297 -18.6294 -26.0993 4.67626 -54.343 0.638016 17.5395 -0.0984262 -56.0596 4.79717 -4.96171 -2.49198 3.67887 18.6536 0.0 0.0 0.0 -0.363104 -4.71422 -3.01606 -7.05169 0.225455 1.05806 27.3425 25.7522 -3.81119 -19.0528 0.0 0.0 -0.0 0.0 -0.0 0.492126 2.28901 -0.45958 3.93238 0.181795 0.575852 15.609 13.3658 2.32404 -21.4009 0.0 0.0 0.0 0.0 0.0 
3520.09707635 733.759 -1499.09407838 170.06876204 86.3605488107 -167.252275354 1.4372 -0.136672 -1.41292 1.43831 -0.0464964 -1.41875 1.43957 0.217597 -1.40274 1.43683 -0.00664724 -1.4195 -11.9154 9.55511 3.99527 -12.0004 15.5507 6.52932 -0.0 0.0 -0.0 9.74881 4.08873 18.9038 -6.36017 -11.4023 70.4944 1.56988 -37.8686 0.538571 23.5811 0.21977 -2.98307 4.73096 19.4162 39.7447 -0.0 0.0 -0.0 10.1965 -17.2152 -18.2388 -25.8223 5.20863 -55.1233 0.635204 17.4669 -0.0975803 -56.42 4.84119 -4.97585 -2.81111 3.12657 20.6703 0.0 0.0 0.0 -0.711428 -4.9812 -3.20404 -7.58086 0.237091 1.13843 28.7577 25.7325 -3.97991 -18.3371 0.0 0.0 -0.0 0.0 -0.0 -0.740332 1.59455 -0.956596 4.20303 0.195758 0.615019 17.8953 11.9393 2.61191 -21.323 0.0 0.0 0.0 0.0 0.0 
3520.50474038 733.759 -1499.98337858 166.64654797 87.2830706064 -163.824903749 1.4372 -0.136672 -1.41292 1.43831 -0.0464964 -1.41875 1.43957 0.217597 -1.40274 1.43683 -0.00664724 -1.4195 -11.9154 9.55511 3.99527 -12.0004 15.5507 6.52932 -0.0 0.0 -0.0 9.74881 4.08873 18.9038 -6.36017 -11.4023 70.4944 1.56988 -37.8686 0.538571 23.5811 0.21977 -2.98307 4.73096 19.4162 39.7447 -0.0 0.0 -0.0 10.1965 -17.2152 -18.2388 -25.8223 5.20863 -55.1233 0.635204 17.4669 -0.0975803 -56.42 4.84119 -4.97585 -2.81111 3.12657 20.6703 0.0 0.0 0.0 -0.711428 -4.9812 -3.20404 -7.58086 0.237091 1.13843 28.7577 25.7325 -3.97991 -18.3371 0.0 0.0 -0.0 0.0 -0.0 -0.740332 1.59455 -0.956596 4.20303 0.195758 0.615019 17.8953 11.9393 2.61191 -21.323 0.0 0.0 0.0 0.0 0.0 
3494.17219458 730.655 -1503.00922329 162.058608976 86.0350180402 -159.23168071 1.77647 -0.0247414 -1.43927 1.77762 0.0668837 -1.43793 1.77591 0.324372 -1.40247 1.77318 0.0988317 -1.43609 -11.6984 8.8129 3.27633 -11.7773 14.5796 5.60245 -0.0 0.0 -0.0 8.86295 7.82838 16.9231 -9.29157 -13.2838 71.0377 1.44285 -35.5531 0.46262 24.3072 0.206956 -3.07493 4.98716 20.5401 42.0759 -0.0 0.0 -0.0 9.88897 -17.2482 -17.7147 -24.94 6.08007 -55.4305 0.605702 16.7018 -0.088913 -56.8316 4.89156 -4.99167 -3.29928 2.34819 23.8338 0.0 0.0 0.0 -1.84996 -4.87203 -3.21949 -11.1586 0.296228 1.68416 33.7571 24.901 -4.52575 -16.3687 0.0 0.0 -0.0 0.0 -0.0 -3.24139 0.301418 -1.54661 3.56203 0.162989 0.522155 21.9959 10.3247 3.11484 -20.7266 0.0 0.0 0.0 0.0 0.0 
3484.60943941 727.879 -1504.8961428 164.314399482 86.0756223455 -161.644850858 2.0619 0.12497 -1.37419 2.06293 0.212152 -1.36346 2.05772 0.447496 -1.3053 2.05542 0.235752 -1.35958 -11.7245 8.21684 3.14963 -11.7908 13.5331 5.31514 -0.0 0.0 -0.0 8.88021 10.3855 16.7513 -10.9221 -13.7378 69.9433 1.42867 -35.2858 0.454399 24.1908 0.209089 -3.06021 5.03092 21.0401 42.5277 -0.0 0.0 -0.0 9.9516 -16.4393 -17.9411 -24.3298 6.59993 -55.6453 0.60898 16.7872 -0.0898576 -57.0703 4.92081 -5.00067 -3.50085 2.15952 25.2275 0.0 0.0 0.0 -1.7974 -5.27148 -3.47182 -12.493 0.309542 1.88845 35.1842 24.3644 -4.66363 -16.0333 0.0 0.0 -0.0 0.0 -0.0 -4.36679 -0.0429142 -1.72767 5.0745 0.241977 0.740683 23.3934 9.93599 3.28088 -20.7804 0.0 0.0 0.0 0.0 0.0 
3485.93003504 727.879 -1508.57463127 143.148544318 88.232028302 -140.457112939 2.0619 0.12497 -1.37419 2.06293 0.212152 -1.36346 2.05772 0.447496 -1.3053 2.05542 0.235752 -1.35958 -11.7245 8.21684 3.14963 -11.7908 13.5331 5.31514 -0.0 0.0 -0.0 8.88021 10.3855 16.7513 -10.9221 -13.7378 69.9433 1.42867 -35.2858 0.454399 24.1908 0.209089 -3.06021 5.03092 21.0401 42.5277 -0.0 0.0 -0.0 9.9516 -16.4393 -17.9411 -24.3298 6.59993 -55.6453 0.60898 16.7872 -0.0898576 -57.0703 4.92081 -5.00067 -3.50085 2.15952 25.2275 0.0 0.0 0.0 -1.7974 -5.27148 -3.47182 -12.493 0.309542 1.88845 35.1842 24.3644 -4.66363 -16.0333 0.0 0.0 -0.0 0.0 -0.0 -4.36679 -0.0429142 -1.72767 5.0745 0.241977 0.740683 23.3934 9.93599 3.28088 -20.7804 0.0 0.0 0.0 0.0 0.0 
3458.90606448 724.334 -1510.67477704 156.909331751 86.1606156333 -154.117879298 2.1007 0.261113 -1.45882 2.10181 0.353402 -1.43926 2.09271 0.599049 -1.35556 2.09034 0.377469 -1.43313 -11.1307 8.28918 3.14104 -11.187 13.6133 5.25824 -0.0 0.0 -0.0 8.13108 12.4628 15.2364 -13.5759 -13.7713 70.1951 1.32762 -33.3299 0.397437 24.349 0.206182 -3.08022 5.11857 21.3507 43.325 -0.0 0.0 -0.0 9.95612 -15.286 -18.1149 -23.304 7.26612 -55.39 0.604415 16.6683 -0.0885435 -57.1076 4.92539 -5.00206 -3.70617 1.8479 26.6006 0.0 0.0 0.0 -2.15232 -5.24664 -3.45521 -14.2563 0.319832 2.15879 36.669 24.1589 -4.81198 -15.0954 0.0 0.0 -0.0 0.0 -0.0 -5.93051 -0.548211 -1.98186 4.62088 0.21768 0.675359 25.8273 8.8638 3.55356 -20.1322 0.0 0.0 0.0 0.0 0.0 
3449.90299909 723.882 -1513.46738805 150.329033893 85.9082128422 -147.480005965 2.11943 0.213861 -1.49403 2.12062 0.308486 -1.4774 2.11244 0.560984 -1.40114 2.10986 0.332686 -1.47214 -11.0691 8.06236 2.83007 -11.1265 13.3818 4.89057 -0.0 0.0 -0.0 7.45825 15.8975 13.8172 -15.11 -13.5 69.5832 1.30997 -32.9787 0.387781 24.1526 0.209783 -3.05538 5.05763 20.7917 42.7161 -0.0 0.0 -0.0 10.1424 -13.6638 -18.6675 -21.0442 7.67327 -55.0975 0.523207 14.5305 -0.0667022 -56.9037 4.90038 -4.9944 -3.78506 1.6841 27.1088 0.0 0.0 0.0 -1.58147 -5.37093 -3.91095 -14.8451 0.321414 2.24912 36.7899 25.1039 -4.85199 -14.8508 0.0 0.0 -0.0 0.0 -0.0 -7.27358 -1.69173 -2.4272 4.97877 0.236805 0.726913 26.3647 8.60609 3.61173 -20.2132 0.0 0.0 0.0 0.0 0.0 
3431.92238385 719.12 -1503.56074254 160.503430054 81.947208009 -157.440576521 2.07224 0.089055 -1.64682 2.07373 0.193652 -1.63782 2.06799 0.477044 -1.57875 2.06458 0.221758 -1.63426 -12.857 6.99865 2.18871 -12.9333 11.9329 4.16776 -0.0 0.0 -0.0 6.67467 22.1609 12.0898 -16.9652 -13.1117 68.8139 1.26457 -32.0629 0.363375 23.4452 0.222039 -2.96586 5.01341 22.4139 42.5791 -0.0 0.0 -0.0 10.2747 -11.2376 -19.2239 -17.1708 9.40339 -55.1373 0.45467 12.6931 -0.0505704 -56.6611 4.87067 -4.98516 -3.9128 1.11816 27.774 0.0 0.0 0.0 -1.26249 -5.44004 -4.41968 -18.9736 0.30644 2.88225 38.7346 26.3766 -5.08995 -12.5333 0.0 0.0 -0.0 0.0 -0.0 -8.78676 -3.05731 -2.83946 4.94095 0.23477 0.721471 28.3482 9.29412 3.85011 -19.9071 0.0 0.0 0.0 0.0 0.0 
